<?xml version="1.0" encoding="UTF-8"?>
<!DOCTYPE svg PUBLIC "-//W3C//DTD SVG 1.1//EN" "http://www.w3.org/Graphics/SVG/1.1/DTD/svg11.dtd">
<svg version="1.1" xmlns="http://www.w3.org/2000/svg" xmlns:xlink="http://www.w3.org/1999/xlink" x="0" y="0" width="1000" height="1000" viewBox="0, 0, 1000, 1000">
  <defs>
    <linearGradient id="Gradient_1" gradientUnits="userSpaceOnUse" x1="95.801" y1="500.5" x2="905.199" y2="500.5">
      <stop offset="0" stop-color="#61FF00"/>
      <stop offset="0.5" stop-color="#0080FF"/>
      <stop offset="1" stop-color="#FF2700"/>
    </linearGradient>
    <clipPath id="Clip_1">
      <path d="M61.809,19.312 L939.191,19.312 L939.191,981.709 L61.809,981.709 z M498.475,27.343 L495.355,27.456 C491.892,27.896 488.395,28.117 484.967,28.777 C476.271,30.452 467.895,33.539 460.173,37.857 L110.638,234.43 C85.361,248.705 69.748,275.179 69.809,303.898 L69.809,697.157 C69.835,725.816 85.435,752.176 110.596,766.388 L460.173,963.145 L460.177,963.147 C485.206,977.23 515.957,977.23 540.986,963.147 L890.366,766.57 C915.641,752.29 931.252,725.822 931.19,697.101 L931.191,304.003 C931.252,275.338 915.641,248.869 890.406,234.612 L540.994,37.86 C527.1,31.076 513.987,26.907 498.475,27.343 z"/>
    </clipPath>
    <filter id="Shadow_2">
      <feGaussianBlur in="SourceAlpha" stdDeviation="3.5"/>
      <feOffset dx="0" dy="0" result="offsetblur"/>
      <feFlood flood-color="#0000FF"/>
      <feComposite in2="offsetblur" operator="in"/>
    </filter>
    <linearGradient id="Gradient_2" gradientUnits="userSpaceOnUse" x1="690.999" y1="753.727" x2="816.558" y2="880.325">
      <stop offset="0" stop-color="#61FF00"/>
      <stop offset="0.5" stop-color="#0080FF"/>
      <stop offset="1" stop-color="#FF2700"/>
    </linearGradient>
  </defs>
  <g id="Layer_1">
    <g>
      <g>
        <path d="M472.922,940.495 L123.379,743.757 C106.324,734.123 95.818,716.371 95.801,697.157 L95.801,303.842 C95.76,284.575 106.274,266.746 123.379,257.085 L472.922,60.508 C490.038,50.874 511.125,50.874 528.241,60.508 L877.621,257.242 C894.726,266.906 905.24,284.732 905.199,304.003 L905.198,697.157 C905.24,716.428 894.726,734.253 877.621,743.918 L528.241,940.495 C511.125,950.125 490.038,950.125 472.922,940.495 z" fill="url(#Gradient_1)"/>
        <path d="M472.922,940.495 L123.379,743.757 C106.324,734.123 95.818,716.371 95.801,697.157 L95.801,303.842 C95.76,284.575 106.274,266.746 123.379,257.085 L472.922,60.508 C490.038,50.874 511.125,50.874 528.241,60.508 L877.621,257.242 C894.726,266.906 905.24,284.732 905.199,304.003 L905.198,697.157 C905.24,716.428 894.726,734.253 877.621,743.918 L528.241,940.495 C511.125,950.125 490.038,950.125 472.922,940.495 z" fill-opacity="0" stroke="#000000" stroke-width="51.984"/>
        <g>
          <path d="M498.475,27.343 C513.987,26.907 527.1,31.076 540.994,37.86 L890.406,234.612 C915.641,248.869 931.252,275.338 931.191,304.003 L931.19,697.101 C931.252,725.822 915.641,752.29 890.366,766.57 L540.986,963.147 C515.957,977.23 485.206,977.23 460.177,963.147 L460.173,963.145 L110.596,766.388 C85.435,752.176 69.835,725.816 69.809,697.157 L69.809,303.898 C69.748,275.179 85.361,248.705 110.638,234.43 L460.173,37.857 C467.895,33.539 476.271,30.452 484.967,28.777 C488.395,28.117 491.892,27.896 495.355,27.456 L498.475,27.343 z" fill="rgba(0,0,0,1)" clip-path="url(#Clip_1)" filter="url(#Shadow_2)"/>
          <path d="M498.524,29.093 C512.511,28.699 524.99,31.993 540.226,39.432 L540.136,39.385 L889.547,236.137 C914.262,250.1 929.501,276.003 929.441,303.999 L929.44,697.101 C929.5,725.156 914.263,751.059 889.505,765.046 L540.128,961.622 C515.632,975.405 485.531,975.405 461.035,961.622 L461.037,961.623 L111.454,764.863 C86.804,750.939 71.584,725.138 71.559,697.155 L71.559,303.898 C71.499,275.844 86.741,249.936 111.499,235.954 L461.031,39.383 C468.624,35.136 476.828,32.126 485.298,30.495 C487.137,30.141 488.643,29.95 492.068,29.588 C493.818,29.403 494.597,29.316 495.575,29.192 L495.418,29.205 L498.538,29.092 z M498.412,25.595 L495.291,25.707 L495.134,25.72 C494.188,25.84 493.425,25.925 491.7,26.107 C488.177,26.479 486.605,26.679 484.636,27.058 C475.798,28.761 467.241,31.9 459.318,36.33 L109.781,232.905 C83.923,247.508 67.996,274.58 68.059,303.901 L68.059,697.157 C68.085,726.408 83.989,753.369 109.735,767.912 L459.314,964.67 L459.313,964.669 C484.881,979.055 516.282,979.055 541.844,964.673 L891.224,768.095 C917.08,753.487 933.003,726.419 932.94,697.098 L932.941,304.003 C933.004,274.739 917.079,247.672 891.267,233.088 L541.853,36.335 L541.762,36.287 C526.055,28.619 513.041,25.183 498.426,25.594 z" fill="rgba(0,0,0,1)" clip-path="url(#Clip_1)" filter="url(#Shadow_2)"/>
        </g>
      </g>
      <g>
        <path d="M451.621,247.395 L412.278,323.027 L451.621,398.659 L530.307,398.659 L569.651,323.027 L530.307,247.395 L451.621,247.395 z M526.238,391.14 L455.691,391.14 L419.965,323.027 L455.239,254.907 L525.785,254.907 L561.511,323.027 L526.238,391.14 z" fill="#FF7000"/>
        <path d="M451.621,247.395 L412.278,323.027 L451.621,398.659 L530.307,398.659 L569.651,323.027 L530.307,247.395 L451.621,247.395 z M526.238,391.14 L455.691,391.14 L419.965,323.027 L455.239,254.907 L525.785,254.907 L561.511,323.027 L526.238,391.14 z" fill-opacity="0" stroke="#000000" stroke-width="3.899"/>
      </g>
      <g>
        <path d="M470.84,284.46 L450.491,323.027 L470.84,361.594 L510.636,361.594 L530.534,323.027 L510.636,284.46 z" fill="#FF7000"/>
        <path d="M470.84,284.46 L450.491,323.027 L470.84,361.594 L510.636,361.594 L530.534,323.027 L510.636,284.46 z" fill-opacity="0" stroke="#000000" stroke-width="3.899"/>
      </g>
      <g>
        <path d="M696.952,274.437 L655.799,248.397 L655.799,270.932 L584.348,270.932 L567.163,237.881 L598.819,237.881 C600.628,246.895 607.412,253.405 616.004,253.405 C625.501,253.405 633.64,244.892 633.64,233.867 C633.64,222.85 625.953,214.337 616.004,214.337 C607.412,214.337 600.628,220.847 598.819,229.861 L563.546,229.861 L551.788,206.825 L430.14,206.825 L369.543,323.027 L393.058,368.104 L326.13,368.104 L326.13,345.562 L284.977,371.61 L326.13,397.658 L326.13,375.115 L397.128,375.115 L414.313,408.174 L383.562,408.174 C381.753,399.16 374.97,392.642 366.377,392.642 C356.881,392.642 348.741,401.163 348.741,412.18 C348.741,422.696 356.428,431.71 366.377,431.71 C374.97,431.71 381.753,425.2 383.562,416.186 L418.383,416.186 L430.14,438.729 L550.884,438.729 L611.482,323.027 L587.966,278.451 L655.799,278.451 L655.799,300.986 L696.952,274.437 z M543.196,423.698 L438.28,423.698 L385.371,323.027 L437.828,222.349 L542.744,222.349 L595.654,323.027 L543.196,423.698 z" fill="#FF7000"/>
        <path d="M696.952,274.437 L655.799,248.397 L655.799,270.932 L584.348,270.932 L567.163,237.881 L598.819,237.881 C600.628,246.895 607.412,253.405 616.004,253.405 C625.501,253.405 633.64,244.892 633.64,233.867 C633.64,222.85 625.953,214.337 616.004,214.337 C607.412,214.337 600.628,220.847 598.819,229.861 L563.546,229.861 L551.788,206.825 L430.14,206.825 L369.543,323.027 L393.058,368.104 L326.13,368.104 L326.13,345.562 L284.977,371.61 L326.13,397.658 L326.13,375.115 L397.128,375.115 L414.313,408.174 L383.562,408.174 C381.753,399.16 374.97,392.642 366.377,392.642 C356.881,392.642 348.741,401.163 348.741,412.18 C348.741,422.696 356.428,431.71 366.377,431.71 C374.97,431.71 381.753,425.2 383.562,416.186 L418.383,416.186 L430.14,438.729 L550.884,438.729 L611.482,323.027 L587.966,278.451 L655.799,278.451 L655.799,300.986 L696.952,274.437 z M543.196,423.698 L438.28,423.698 L385.371,323.027 L437.828,222.349 L542.744,222.349 L595.654,323.027 L543.196,423.698 z" fill-opacity="0" stroke="#000000" stroke-width="6.498"/>
      </g>
      <path d="M286.369,642.279 C297.89,642.279 306.277,640.377 311.53,636.582 C316.782,632.783 319.409,627.415 319.409,620.479 C319.409,616.35 318.519,612.8 316.74,609.827 C314.961,606.854 312.419,604.172 309.115,601.777 C305.811,599.382 301.787,597.156 297.043,595.09 C292.299,593.027 286.877,591.004 280.777,589.022 C274.677,586.875 268.789,584.522 263.113,581.963 C257.438,579.403 252.439,576.224 248.119,572.425 C243.798,568.629 240.324,564.088 237.698,558.801 C235.072,553.517 233.759,547.158 233.759,539.728 C233.759,524.206 239.266,512.028 250.279,503.194 C261.292,494.356 276.287,489.941 295.264,489.941 C306.277,489.941 316.062,491.139 324.619,493.534 C333.175,495.925 339.91,498.527 344.824,501.335 L334.912,526.601 C329.151,523.464 322.84,521.069 315.977,519.416 C309.115,517.767 302.042,516.941 294.756,516.941 C286.114,516.941 279.38,518.674 274.55,522.14 C269.721,525.61 267.307,530.481 267.307,536.755 C267.307,540.555 268.112,543.814 269.721,546.542 C271.331,549.266 273.619,551.7 276.584,553.85 C279.549,555.996 283.022,557.978 287.004,559.791 C290.986,561.609 295.349,563.342 300.093,564.995 C308.395,567.968 315.808,570.982 322.331,574.035 C328.854,577.092 334.361,580.723 338.851,584.936 C343.341,589.144 346.772,594.099 349.145,599.796 C351.517,605.492 352.703,612.387 352.703,620.479 C352.703,636.004 347.069,648.018 335.801,656.519 C324.534,665.024 308.056,669.279 286.369,669.279 C279.083,669.279 272.432,668.823 266.418,667.917 C260.403,667.006 255.065,665.893 250.406,664.573 C245.746,663.249 241.722,661.887 238.334,660.483 C234.945,659.079 232.234,657.801 230.201,656.645 L239.604,631.13 C244.179,633.609 250.364,636.085 258.158,638.564 C265.952,641.039 275.355,642.279 286.369,642.279 z M562.887,493.905 L562.887,520.905 L508.753,520.905 L508.753,665.564 L476.475,665.564 L476.475,520.905 L422.34,520.905 L422.34,493.905 L562.887,493.905 z M769.26,493.905 L769.26,520.905 L715.125,520.905 L715.125,665.564 L682.847,665.564 L682.847,520.905 L628.713,520.905 L628.713,493.905 L769.26,493.905 z" fill="#000000"/>
      <path d="M351.434,743.701 C351.293,743.839 351.14,743.93 350.975,743.976 C350.81,744.022 350.657,744.045 350.515,744.045 L341.404,744.045 C341.146,744.045 340.963,744.018 340.857,743.961 C340.751,743.904 340.628,743.804 340.487,743.666 L338.474,741.742 C338.309,741.581 338.209,741.436 338.173,741.31 C338.138,741.183 338.12,741.065 338.12,740.95 L338.12,737.438 C338.12,737.323 338.167,737.216 338.262,737.112 C338.356,737.009 338.474,736.956 338.615,736.956 L341.864,736.956 C342.005,736.956 342.123,737.009 342.217,737.112 C342.311,737.216 342.358,737.323 342.358,737.438 L342.358,739.917 L348.679,739.917 C348.726,739.917 348.785,739.882 348.856,739.814 L349.456,739.263 C349.527,739.217 349.562,739.136 349.562,739.022 L349.562,734.997 C349.562,734.905 349.527,734.825 349.456,734.756 L348.891,734.205 C348.821,734.136 348.738,734.101 348.644,734.101 L341.299,734.101 C341.228,734.101 341.116,734.078 340.963,734.033 C340.81,733.987 340.651,733.883 340.487,733.723 L338.474,731.794 C338.332,731.657 338.238,731.511 338.191,731.362 C338.144,731.213 338.12,731.071 338.12,730.934 L338.12,723.19 C338.12,723.075 338.144,722.937 338.191,722.777 C338.238,722.616 338.344,722.455 338.509,722.295 L340.487,720.366 C340.604,720.252 340.716,720.167 340.822,720.11 C340.928,720.053 341.122,720.022 341.404,720.022 L350.515,720.022 C350.657,720.022 350.816,720.053 350.992,720.11 C351.169,720.167 351.316,720.252 351.434,720.366 L353.411,722.295 C353.6,722.501 353.712,722.67 353.747,722.796 C353.782,722.922 353.8,723.052 353.8,723.19 L353.8,726.805 C353.8,727.123 353.635,727.284 353.305,727.284 L350.056,727.284 C349.727,727.284 349.562,727.123 349.562,726.805 L349.562,724.154 L343.347,724.154 C343.253,724.154 343.158,724.188 343.064,724.257 L342.464,724.808 C342.393,724.854 342.358,724.935 342.358,725.049 L342.358,729.04 C342.358,729.132 342.393,729.212 342.464,729.281 L343.064,729.866 C343.135,729.935 343.229,729.969 343.347,729.969 L350.515,729.969 C350.892,729.969 351.198,730.084 351.434,730.314 L353.411,732.242 C353.67,732.518 353.8,732.816 353.8,733.137 L353.8,740.847 C353.8,741.191 353.67,741.489 353.411,741.742 z M369.373,744.045 C369.232,744.045 369.096,743.995 368.967,743.892 C368.837,743.789 368.749,743.678 368.702,743.563 L364.005,733.275 L361.604,736.542 L361.604,743.563 C361.604,743.884 361.439,744.045 361.109,744.045 L357.86,744.045 C357.531,744.045 357.366,743.884 357.366,743.563 L357.366,720.504 C357.366,720.183 357.531,720.022 357.86,720.022 L361.109,720.022 C361.439,720.022 361.604,720.183 361.604,720.504 L361.604,729.384 L367.784,720.504 C367.878,720.366 367.972,720.252 368.066,720.16 C368.16,720.068 368.278,720.022 368.42,720.022 L372.798,720.022 C373.034,720.022 373.216,720.087 373.346,720.213 C373.475,720.34 373.469,720.493 373.328,720.676 L366.795,729.522 L373.469,743.253 C373.564,743.46 373.587,743.643 373.54,743.804 C373.493,743.965 373.352,744.045 373.116,744.045 L369.373,744.045 z M376.188,744.045 C375.859,744.045 375.694,743.884 375.694,743.563 L375.694,720.504 C375.694,720.183 375.859,720.022 376.188,720.022 L389.007,720.022 C389.337,720.022 389.501,720.183 389.501,720.504 L389.501,723.672 C389.501,723.787 389.454,723.894 389.36,723.997 C389.266,724.1 389.149,724.154 389.007,724.154 L379.932,724.154 L379.932,729.969 L387.1,729.969 C387.218,729.969 387.33,730.015 387.436,730.107 C387.542,730.199 387.595,730.314 387.595,730.451 L387.595,733.619 C387.595,733.757 387.542,733.872 387.436,733.964 C387.33,734.056 387.218,734.101 387.1,734.101 L379.932,734.101 L379.932,739.917 L389.007,739.917 C389.337,739.917 389.501,740.078 389.501,740.399 L389.501,743.563 C389.501,743.884 389.337,744.045 389.007,744.045 L376.188,744.045 z M404.651,744.045 C404.51,744.045 404.38,743.995 404.262,743.892 C404.145,743.789 404.063,743.678 404.015,743.563 L400.519,735.2 L396.564,735.2 L396.564,743.563 C396.564,743.884 396.399,744.045 396.07,744.045 L392.821,744.045 C392.492,744.045 392.327,743.884 392.327,743.563 L392.327,720.504 C392.327,720.183 392.492,720.022 392.821,720.022 L404.051,720.022 C404.145,720.022 404.239,720.033 404.333,720.056 C404.427,720.079 404.527,720.11 404.633,720.144 C404.739,720.179 404.851,720.252 404.969,720.366 L406.946,722.295 C407.135,722.478 407.253,722.685 407.3,722.914 C407.323,723.006 407.335,723.098 407.335,723.19 L407.335,731.932 C407.335,732.345 407.205,732.678 406.946,732.931 L404.863,734.962 L408.429,743.529 C408.477,743.643 408.471,743.758 408.412,743.873 C408.353,743.988 408.218,744.045 408.006,744.045 L404.651,744.045 z M402.956,730.417 C403.027,730.348 403.062,730.268 403.062,730.176 L403.062,724.98 C403.062,724.911 403.038,724.854 402.991,724.808 L402.391,724.257 C402.273,724.188 402.191,724.154 402.144,724.154 L396.564,724.154 L396.564,731.071 L402.144,731.071 C402.238,731.071 402.32,731.037 402.391,730.968 z M426.792,744.045 C426.463,744.045 426.298,743.884 426.298,743.563 L426.086,731.863 L422.484,743.563 C422.437,743.678 422.349,743.789 422.22,743.892 C422.09,743.995 421.955,744.045 421.813,744.045 L418.988,744.045 C418.824,744.045 418.682,743.988 418.564,743.873 C418.447,743.758 418.364,743.632 418.317,743.494 L414.715,731.863 L414.539,743.563 C414.539,743.884 414.374,744.045 414.045,744.045 L410.796,744.045 C410.466,744.045 410.301,743.884 410.301,743.563 L411.255,720.504 C411.255,720.389 411.296,720.282 411.378,720.179 C411.461,720.076 411.561,720.022 411.678,720.022 L415.174,720.022 C415.433,720.022 415.61,720.183 415.704,720.504 L420.401,737.369 L425.133,720.504 C425.227,720.183 425.404,720.022 425.663,720.022 L429.123,720.022 C429.241,720.022 429.347,720.076 429.441,720.179 C429.535,720.282 429.582,720.389 429.582,720.504 L430.536,743.563 C430.536,743.701 430.483,743.815 430.377,743.907 C430.271,743.999 430.159,744.045 430.041,744.045 L426.792,744.045 z M434.279,744.045 C433.95,744.045 433.785,743.884 433.785,743.563 L433.785,720.504 C433.785,720.183 433.95,720.022 434.279,720.022 L437.528,720.022 C437.857,720.022 438.022,720.183 438.022,720.504 L438.022,743.563 C438.022,743.884 437.857,744.045 437.528,744.045 L434.279,744.045 z M442.33,744.045 C442.001,744.045 441.836,743.884 441.836,743.563 L441.836,720.504 C441.836,720.183 442.001,720.022 442.33,720.022 L455.149,720.022 C455.479,720.022 455.643,720.183 455.643,720.504 L455.643,723.672 C455.643,723.787 455.596,723.894 455.502,723.997 C455.408,724.1 455.291,724.154 455.149,724.154 L446.074,724.154 L446.074,729.969 L453.242,729.969 C453.36,729.969 453.472,730.015 453.578,730.107 C453.684,730.199 453.737,730.314 453.737,730.451 L453.737,733.619 C453.737,733.757 453.684,733.872 453.578,733.964 C453.472,734.056 453.36,734.101 453.242,734.101 L446.074,734.101 L446.074,739.917 L455.149,739.917 C455.479,739.917 455.643,740.078 455.643,740.399 L455.643,743.563 C455.643,743.884 455.479,744.045 455.149,744.045 L442.33,744.045 z M471.111,743.701 C470.875,743.93 470.569,744.045 470.193,744.045 L458.963,744.045 C458.822,744.045 458.704,743.995 458.61,743.892 C458.516,743.789 458.469,743.666 458.469,743.529 L458.469,720.504 C458.469,720.183 458.634,720.022 458.963,720.022 L470.193,720.022 C470.287,720.022 470.416,720.041 470.581,720.076 C470.746,720.11 470.923,720.217 471.111,720.401 L473.088,722.329 C473.347,722.582 473.477,722.88 473.477,723.224 L473.477,729.453 C473.477,729.637 473.459,729.786 473.424,729.901 C473.389,730.015 473.277,730.165 473.088,730.348 L471.711,731.691 L473.088,733.068 C473.277,733.275 473.389,733.447 473.424,733.585 C473.459,733.723 473.477,733.849 473.477,733.964 L473.477,740.847 C473.477,741.053 473.442,741.225 473.371,741.363 C473.3,741.501 473.206,741.627 473.088,741.742 z M469.098,739.263 C469.192,739.171 469.239,739.079 469.239,738.987 L469.239,734.687 L469.133,734.515 L468.533,733.929 C468.462,733.86 468.368,733.826 468.25,733.826 L462.706,733.826 L462.706,739.882 L468.25,739.882 C468.321,739.882 468.415,739.848 468.533,739.779 z M469.133,729.04 C469.204,728.971 469.239,728.891 469.239,728.799 L469.239,724.877 C469.239,724.785 469.204,724.705 469.133,724.636 L468.639,724.154 L462.706,724.154 L462.706,729.694 L468.321,729.694 C468.392,729.694 468.462,729.66 468.533,729.591 z M489.368,744.045 C489.227,744.045 489.097,743.995 488.979,743.892 C488.862,743.789 488.779,743.678 488.732,743.563 L485.236,735.2 L481.281,735.2 L481.281,743.563 C481.281,743.884 481.116,744.045 480.787,744.045 L477.538,744.045 C477.208,744.045 477.043,743.884 477.043,743.563 L477.043,720.504 C477.043,720.183 477.208,720.022 477.538,720.022 L488.767,720.022 C488.862,720.022 488.956,720.033 489.05,720.056 C489.144,720.079 489.244,720.11 489.35,720.144 C489.456,720.179 489.568,720.252 489.686,720.366 L491.663,722.295 C491.852,722.478 491.969,722.685 492.016,722.914 C492.04,723.006 492.052,723.098 492.052,723.19 L492.052,731.932 C492.052,732.345 491.922,732.678 491.663,732.931 L489.58,734.962 L493.146,743.529 C493.194,743.643 493.188,743.758 493.129,743.873 C493.07,743.988 492.934,744.045 492.722,744.045 L489.368,744.045 z M487.673,730.417 C487.743,730.348 487.779,730.268 487.779,730.176 L487.779,724.98 C487.779,724.911 487.755,724.854 487.708,724.808 L487.108,724.257 C486.99,724.188 486.908,724.154 486.86,724.154 L481.281,724.154 L481.281,731.071 L486.86,731.071 C486.955,731.071 487.037,731.037 487.108,730.968 z M508.755,743.701 C508.519,743.93 508.119,744.045 507.554,744.045 L498.62,744.045 C498.549,744.045 498.437,744.03 498.285,743.995 C498.132,743.961 497.973,743.861 497.808,743.701 L495.795,741.742 C495.63,741.581 495.53,741.424 495.495,741.275 C495.459,741.126 495.442,741.019 495.442,740.95 L495.442,723.121 C495.442,723.029 495.459,722.907 495.495,722.761 C495.53,722.612 495.63,722.455 495.795,722.295 L497.808,720.366 C497.949,720.229 498.084,720.137 498.214,720.091 C498.344,720.045 498.514,720.022 498.726,720.022 L507.837,720.022 C507.978,720.022 508.131,720.045 508.296,720.091 C508.461,720.137 508.614,720.229 508.755,720.366 L510.733,722.295 C510.85,722.409 510.944,722.543 511.015,722.693 C511.086,722.838 511.121,723.006 511.121,723.19 L511.121,740.847 C511.121,741.076 511.086,741.252 511.015,741.378 C510.944,741.505 510.85,741.627 510.733,741.742 z M506.777,739.435 C506.848,739.366 506.883,739.286 506.883,739.194 L506.883,725.049 C506.883,725.026 506.877,724.992 506.866,724.946 C506.854,724.9 506.824,724.854 506.777,724.808 L506.177,724.257 C506.106,724.188 506.036,724.154 505.965,724.154 L500.633,724.154 C500.539,724.154 500.456,724.188 500.386,724.257 L499.785,724.808 C499.715,724.877 499.679,724.957 499.679,725.049 L499.679,739.194 C499.679,739.286 499.715,739.366 499.785,739.435 L500.28,739.917 L506.283,739.917 z M527.93,744.045 C527.812,744.045 527.712,744.007 527.63,743.926 C527.547,743.846 527.506,743.747 527.506,743.632 L527.506,724.154 L522.562,724.154 C522.233,724.154 522.068,723.993 522.068,723.672 L522.068,720.504 C522.068,720.183 522.233,720.022 522.562,720.022 L536.723,720.022 C536.841,720.022 536.953,720.068 537.059,720.16 C537.165,720.252 537.217,720.366 537.217,720.504 L537.217,723.672 C537.217,723.81 537.165,723.924 537.059,724.016 C536.953,724.108 536.841,724.154 536.723,724.154 L531.744,724.154 L531.744,743.632 C531.744,743.907 531.614,744.045 531.356,744.045 L527.93,744.045 z M540.325,744.045 C539.995,744.045 539.831,743.884 539.831,743.563 L539.831,720.504 C539.831,720.183 539.995,720.022 540.325,720.022 L553.144,720.022 C553.474,720.022 553.638,720.183 553.638,720.504 L553.638,723.672 C553.638,723.787 553.591,723.894 553.497,723.997 C553.403,724.1 553.285,724.154 553.144,724.154 L544.068,724.154 L544.068,729.969 L551.237,729.969 C551.354,729.969 551.466,730.015 551.572,730.107 C551.678,730.199 551.731,730.314 551.731,730.451 L551.731,733.619 C551.731,733.757 551.678,733.872 551.572,733.964 C551.466,734.056 551.354,734.101 551.237,734.101 L544.068,734.101 L544.068,739.917 L553.144,739.917 C553.474,739.917 553.638,740.078 553.638,740.399 L553.638,743.563 C553.638,743.884 553.474,744.045 553.144,744.045 L540.325,744.045 z M569.6,743.701 C569.482,743.815 569.364,743.904 569.247,743.961 C569.129,744.018 568.941,744.045 568.682,744.045 L559.465,744.045 C559.324,744.045 559.194,744.03 559.076,743.995 C558.959,743.961 558.817,743.861 558.653,743.701 L556.64,741.742 C556.499,741.604 556.404,741.47 556.357,741.344 C556.31,741.218 556.287,741.088 556.287,740.95 L556.287,723.19 C556.287,722.823 556.404,722.524 556.64,722.295 L558.653,720.366 C558.794,720.229 558.941,720.137 559.094,720.091 C559.247,720.045 559.406,720.022 559.571,720.022 L568.682,720.022 C568.87,720.022 569.035,720.045 569.176,720.091 C569.318,720.137 569.458,720.229 569.6,720.366 L571.577,722.295 C571.719,722.432 571.818,722.555 571.877,722.658 C571.936,722.761 571.966,722.937 571.966,723.19 L571.966,726.87 C571.966,727.192 571.801,727.352 571.471,727.352 L568.223,727.352 C567.893,727.352 567.728,727.192 567.728,726.87 L567.728,725.049 C567.728,724.957 567.693,724.877 567.622,724.808 L567.022,724.257 C566.904,724.188 566.834,724.154 566.81,724.154 L561.513,724.154 C561.395,724.154 561.301,724.188 561.23,724.257 L560.63,724.808 C560.56,724.877 560.524,724.957 560.524,725.049 L560.524,739.125 C560.524,739.263 560.56,739.366 560.63,739.435 L561.125,739.917 L567.128,739.917 L567.622,739.435 C567.693,739.366 567.728,739.286 567.728,739.194 L567.728,737.266 C567.728,737.128 567.775,737.009 567.869,736.906 C567.964,736.803 568.081,736.749 568.223,736.749 L571.471,736.749 C571.613,736.749 571.731,736.803 571.824,736.906 C571.919,737.009 571.966,737.128 571.966,737.266 L571.966,740.915 C571.966,741.076 571.942,741.214 571.895,741.329 C571.848,741.443 571.742,741.581 571.577,741.742 z M587.115,744.045 C586.786,744.045 586.621,743.884 586.621,743.563 L586.621,734.101 L579.417,734.101 L579.417,743.563 C579.417,743.884 579.252,744.045 578.923,744.045 L575.674,744.045 C575.344,744.045 575.18,743.884 575.18,743.563 L575.18,720.504 C575.18,720.183 575.344,720.022 575.674,720.022 L578.923,720.022 C579.252,720.022 579.417,720.183 579.417,720.504 L579.417,729.969 L586.621,729.969 L586.621,720.504 C586.621,720.183 586.786,720.022 587.115,720.022 L590.364,720.022 C590.694,720.022 590.859,720.183 590.859,720.504 L590.859,743.563 C590.859,743.884 590.694,744.045 590.364,744.045 L587.115,744.045 z M607.809,744.045 C607.691,744.045 607.591,744.007 607.509,743.926 C607.427,743.846 607.385,743.747 607.385,743.632 L607.385,724.154 L602.441,724.154 C602.112,724.154 601.947,723.993 601.947,723.672 L601.947,720.504 C601.947,720.183 602.112,720.022 602.441,720.022 L616.602,720.022 C616.72,720.022 616.832,720.068 616.937,720.16 C617.043,720.252 617.096,720.366 617.096,720.504 L617.096,723.672 C617.096,723.81 617.043,723.924 616.937,724.016 C616.832,724.108 616.72,724.154 616.602,724.154 L611.623,724.154 L611.623,743.632 C611.623,743.907 611.493,744.045 611.234,744.045 L607.809,744.045 z M620.204,744.045 C619.874,744.045 619.71,743.884 619.71,743.563 L619.71,720.504 C619.71,720.183 619.874,720.022 620.204,720.022 L623.453,720.022 C623.783,720.022 623.947,720.183 623.947,720.504 L623.947,743.563 C623.947,743.884 623.783,744.045 623.453,744.045 L620.204,744.045 z M628.255,744.045 C627.926,744.045 627.761,743.884 627.761,743.563 L627.761,720.504 C627.761,720.183 627.926,720.022 628.255,720.022 L639.485,720.022 C639.65,720.022 639.803,720.041 639.944,720.076 C640.085,720.11 640.238,720.206 640.403,720.366 L642.381,722.295 C642.569,722.501 642.681,722.681 642.716,722.83 C642.752,722.976 642.769,723.098 642.769,723.19 L642.769,732.035 C642.769,732.38 642.64,732.678 642.381,732.931 L640.403,734.859 C640.286,734.97 640.156,735.062 640.015,735.131 C639.873,735.2 639.697,735.234 639.485,735.234 L631.999,735.234 L631.999,743.563 C631.999,743.884 631.834,744.045 631.504,744.045 L628.255,744.045 z M638.426,730.417 C638.473,730.371 638.496,730.325 638.496,730.279 L638.496,724.98 C638.496,724.911 638.473,724.854 638.426,724.808 L637.79,724.223 C637.743,724.177 637.684,724.154 637.613,724.154 L631.999,724.154 L631.999,731.071 L637.613,731.071 C637.708,731.071 637.778,731.048 637.825,731.002 z M659.19,743.701 C659.049,743.839 658.896,743.93 658.731,743.976 C658.566,744.022 658.413,744.045 658.272,744.045 L649.161,744.045 C648.902,744.045 648.72,744.018 648.614,743.961 C648.508,743.904 648.384,743.804 648.243,743.666 L646.23,741.742 C646.065,741.581 645.965,741.436 645.93,741.31 C645.895,741.183 645.877,741.065 645.877,740.95 L645.877,737.438 C645.877,737.323 645.924,737.216 646.018,737.112 C646.112,737.009 646.23,736.956 646.371,736.956 L649.62,736.956 C649.761,736.956 649.879,737.009 649.973,737.112 C650.067,737.216 650.114,737.323 650.114,737.438 L650.114,739.917 L656.435,739.917 C656.483,739.917 656.541,739.882 656.612,739.814 L657.212,739.263 C657.283,739.217 657.318,739.136 657.318,739.022 L657.318,734.997 C657.318,734.905 657.283,734.825 657.212,734.756 L656.647,734.205 C656.577,734.136 656.494,734.101 656.4,734.101 L649.055,734.101 C648.984,734.101 648.872,734.078 648.719,734.033 C648.567,733.987 648.408,733.883 648.243,733.723 L646.23,731.794 C646.089,731.657 645.995,731.511 645.947,731.362 C645.9,731.213 645.877,731.071 645.877,730.934 L645.877,723.19 C645.877,723.075 645.9,722.937 645.947,722.777 C645.995,722.616 646.101,722.455 646.265,722.295 L648.243,720.366 C648.361,720.252 648.472,720.167 648.578,720.11 C648.684,720.053 648.878,720.022 649.161,720.022 L658.272,720.022 C658.413,720.022 658.572,720.053 658.748,720.11 C658.925,720.167 659.072,720.252 659.19,720.366 L661.167,722.295 C661.356,722.501 661.468,722.67 661.503,722.796 C661.538,722.922 661.556,723.052 661.556,723.19 L661.556,726.805 C661.556,727.123 661.391,727.284 661.062,727.284 L657.813,727.284 C657.483,727.284 657.318,727.123 657.318,726.805 L657.318,724.154 L651.103,724.154 C651.009,724.154 650.915,724.188 650.821,724.257 L650.221,724.808 C650.15,724.854 650.114,724.935 650.114,725.049 L650.114,729.04 C650.114,729.132 650.15,729.212 650.221,729.281 L650.821,729.866 C650.891,729.935 650.986,729.969 651.103,729.969 L658.272,729.969 C658.648,729.969 658.954,730.084 659.19,730.314 L661.167,732.242 C661.426,732.518 661.556,732.816 661.556,733.137 L661.556,740.847 C661.556,741.191 661.426,741.489 661.167,741.742 z" fill="#000000"/>
    </g>
    <g>
      <path d="M570.223,751.887 L622.299,751.887 Q637.762,751.887 645.36,753.175 Q652.959,754.464 658.957,758.552 Q664.956,762.639 668.955,769.438 Q672.954,776.236 672.954,784.679 Q672.954,793.832 668.022,801.474 Q663.089,809.117 654.647,812.938 Q666.555,816.404 672.954,824.758 Q679.352,833.111 679.352,844.397 Q679.352,853.284 675.22,861.682 Q671.087,870.08 663.934,875.101 Q656.78,880.122 646.294,881.277 Q639.717,881.988 614.568,882.166 L570.223,882.166 z M596.528,773.57 L596.528,803.696 L613.768,803.696 Q629.142,803.696 632.875,803.252 Q639.628,802.452 643.494,798.586 Q647.36,794.721 647.36,788.411 Q647.36,782.368 644.027,778.591 Q640.695,774.814 634.119,774.014 Q630.209,773.57 611.635,773.57 z M596.528,825.38 L596.528,860.216 L620.878,860.216 Q635.096,860.216 638.918,859.416 Q644.783,858.349 648.471,854.217 Q652.159,850.085 652.159,843.153 Q652.159,837.288 649.315,833.2 Q646.471,829.112 641.095,827.246 Q635.718,825.38 617.767,825.38 z M696.237,817.826 Q696.237,797.92 702.191,784.412 Q706.634,774.459 714.321,766.55 Q722.008,758.64 731.162,754.819 Q743.336,749.665 759.244,749.665 Q788.037,749.665 805.321,767.527 Q822.606,785.389 822.606,817.204 Q822.606,848.752 805.455,866.57 Q788.303,884.388 759.599,884.388 Q730.54,884.388 713.388,866.659 Q696.237,848.93 696.237,817.826 z M723.341,816.937 Q723.341,839.065 733.561,850.485 Q743.781,861.904 759.51,861.904 Q775.24,861.904 785.326,850.574 Q795.413,839.243 795.413,816.582 Q795.413,794.187 785.593,783.168 Q775.773,772.148 759.51,772.148 Q743.248,772.148 733.294,783.301 Q723.341,794.454 723.341,816.937 z M872.461,882.166 L872.461,773.926 L833.803,773.926 L833.803,751.887 L937.334,751.887 L937.334,773.926 L898.765,773.926 L898.765,882.166 z" fill="url(#Gradient_2)"/>
      <path d="M570.223,751.887 L622.299,751.887 Q637.762,751.887 645.36,753.175 Q652.959,754.464 658.957,758.552 Q664.956,762.639 668.955,769.438 Q672.954,776.236 672.954,784.679 Q672.954,793.832 668.022,801.474 Q663.089,809.117 654.647,812.938 Q666.555,816.404 672.954,824.758 Q679.352,833.111 679.352,844.397 Q679.352,853.284 675.22,861.682 Q671.087,870.08 663.934,875.101 Q656.78,880.122 646.294,881.277 Q639.717,881.988 614.568,882.166 L570.223,882.166 z M596.528,773.57 L596.528,803.696 L613.768,803.696 Q629.142,803.696 632.875,803.252 Q639.628,802.452 643.494,798.586 Q647.36,794.721 647.36,788.411 Q647.36,782.368 644.027,778.591 Q640.695,774.814 634.119,774.014 Q630.209,773.57 611.635,773.57 z M596.528,825.38 L596.528,860.216 L620.878,860.216 Q635.096,860.216 638.918,859.416 Q644.783,858.349 648.471,854.217 Q652.159,850.085 652.159,843.153 Q652.159,837.288 649.315,833.2 Q646.471,829.112 641.095,827.246 Q635.718,825.38 617.767,825.38 z M696.237,817.826 Q696.237,797.92 702.191,784.412 Q706.634,774.459 714.321,766.55 Q722.008,758.64 731.162,754.819 Q743.336,749.665 759.244,749.665 Q788.037,749.665 805.321,767.527 Q822.606,785.389 822.606,817.204 Q822.606,848.752 805.455,866.57 Q788.303,884.388 759.599,884.388 Q730.54,884.388 713.388,866.659 Q696.237,848.93 696.237,817.826 z M723.341,816.937 Q723.341,839.065 733.561,850.485 Q743.781,861.904 759.51,861.904 Q775.24,861.904 785.326,850.574 Q795.413,839.243 795.413,816.582 Q795.413,794.187 785.593,783.168 Q775.773,772.148 759.51,772.148 Q743.248,772.148 733.294,783.301 Q723.341,794.454 723.341,816.937 z M872.461,882.166 L872.461,773.926 L833.803,773.926 L833.803,751.887 L937.334,751.887 L937.334,773.926 L898.765,773.926 L898.765,882.166 z" fill-opacity="0" stroke="#0800FF" stroke-width="7.5"/>
      <path d="M570.223,751.887 L622.299,751.887 Q637.762,751.887 645.36,753.175 Q652.959,754.464 658.957,758.552 Q664.956,762.639 668.955,769.438 Q672.954,776.236 672.954,784.679 Q672.954,793.832 668.022,801.474 Q663.089,809.117 654.647,812.938 Q666.555,816.404 672.954,824.758 Q679.352,833.111 679.352,844.397 Q679.352,853.284 675.22,861.682 Q671.087,870.08 663.934,875.101 Q656.78,880.122 646.294,881.277 Q639.717,881.988 614.568,882.166 L570.223,882.166 z M596.528,773.57 L596.528,803.696 L613.768,803.696 Q629.142,803.696 632.875,803.252 Q639.628,802.452 643.494,798.586 Q647.36,794.721 647.36,788.411 Q647.36,782.368 644.027,778.591 Q640.695,774.814 634.119,774.014 Q630.209,773.57 611.635,773.57 z M596.528,825.38 L596.528,860.216 L620.878,860.216 Q635.096,860.216 638.918,859.416 Q644.783,858.349 648.471,854.217 Q652.159,850.085 652.159,843.153 Q652.159,837.288 649.315,833.2 Q646.471,829.112 641.095,827.246 Q635.718,825.38 617.767,825.38 z M696.237,817.826 Q696.237,797.92 702.191,784.412 Q706.634,774.459 714.321,766.55 Q722.008,758.64 731.162,754.819 Q743.336,749.665 759.244,749.665 Q788.037,749.665 805.321,767.527 Q822.606,785.389 822.606,817.204 Q822.606,848.752 805.455,866.57 Q788.303,884.388 759.599,884.388 Q730.54,884.388 713.388,866.659 Q696.237,848.93 696.237,817.826 z M723.341,816.937 Q723.341,839.065 733.561,850.485 Q743.781,861.904 759.51,861.904 Q775.24,861.904 785.326,850.574 Q795.413,839.243 795.413,816.582 Q795.413,794.187 785.593,783.168 Q775.773,772.148 759.51,772.148 Q743.248,772.148 733.294,783.301 Q723.341,794.454 723.341,816.937 z M872.461,882.166 L872.461,773.926 L833.803,773.926 L833.803,751.887 L937.334,751.887 L937.334,773.926 L898.765,773.926 L898.765,882.166 z" fill-opacity="0" stroke="#FF0007" stroke-width="4.5"/>
      <path d="M570.223,751.887 L622.299,751.887 Q637.762,751.887 645.36,753.175 Q652.959,754.464 658.957,758.552 Q664.956,762.639 668.955,769.438 Q672.954,776.236 672.954,784.679 Q672.954,793.832 668.022,801.474 Q663.089,809.117 654.647,812.938 Q666.555,816.404 672.954,824.758 Q679.352,833.111 679.352,844.397 Q679.352,853.284 675.22,861.682 Q671.087,870.08 663.934,875.101 Q656.78,880.122 646.294,881.277 Q639.717,881.988 614.568,882.166 L570.223,882.166 z M596.528,773.57 L596.528,803.696 L613.768,803.696 Q629.142,803.696 632.875,803.252 Q639.628,802.452 643.494,798.586 Q647.36,794.721 647.36,788.411 Q647.36,782.368 644.027,778.591 Q640.695,774.814 634.119,774.014 Q630.209,773.57 611.635,773.57 z M596.528,825.38 L596.528,860.216 L620.878,860.216 Q635.096,860.216 638.918,859.416 Q644.783,858.349 648.471,854.217 Q652.159,850.085 652.159,843.153 Q652.159,837.288 649.315,833.2 Q646.471,829.112 641.095,827.246 Q635.718,825.38 617.767,825.38 z M696.237,817.826 Q696.237,797.92 702.191,784.412 Q706.634,774.459 714.321,766.55 Q722.008,758.64 731.162,754.819 Q743.336,749.665 759.244,749.665 Q788.037,749.665 805.321,767.527 Q822.606,785.389 822.606,817.204 Q822.606,848.752 805.455,866.57 Q788.303,884.388 759.599,884.388 Q730.54,884.388 713.388,866.659 Q696.237,848.93 696.237,817.826 z M723.341,816.937 Q723.341,839.065 733.561,850.485 Q743.781,861.904 759.51,861.904 Q775.24,861.904 785.326,850.574 Q795.413,839.243 795.413,816.582 Q795.413,794.187 785.593,783.168 Q775.773,772.148 759.51,772.148 Q743.248,772.148 733.294,783.301 Q723.341,794.454 723.341,816.937 z M872.461,882.166 L872.461,773.926 L833.803,773.926 L833.803,751.887 L937.334,751.887 L937.334,773.926 L898.765,773.926 L898.765,882.166 z" fill-opacity="0" stroke="#02FF00" stroke-width="2"/>
    </g>
  </g>
</svg>
